<?xml version="1.0" standalone="no"?>
<!DOCTYPE svg PUBLIC "-//W3C//DTD SVG 20010904//EN"
 "http://www.w3.org/TR/2001/REC-SVG-20010904/DTD/svg10.dtd">
<svg version="1.0" xmlns="http://www.w3.org/2000/svg"
 width="700.000000pt" height="700.000000pt" viewBox="0 0 700.000000 700.000000"
 preserveAspectRatio="xMidYMid meet">
<metadata>
Created by potrace 1.11, written by Peter Selinger 2001-2013
</metadata>
<g transform="translate(0.000000,700.000000) scale(0.100000,-0.100000)"
fill="#000000" stroke="none">
<path d="M6136 6979 c-173 -42 -268 -105 -571 -380 -81 -74 -132 -119 -280
-250 -77 -68 -142 -126 -145 -129 -3 -3 -43 -39 -90 -80 -47 -41 -103 -91
-124 -110 -21 -19 -44 -39 -50 -45 -6 -5 -65 -57 -131 -115 -66 -58 -122 -107
-125 -110 -4 -4 -104 -92 -199 -175 -19 -16 -42 -37 -51 -45 -9 -8 -47 -42
-85 -75 -71 -61 -135 -118 -165 -145 -8 -8 -51 -46 -95 -85 -44 -38 -85 -74
-91 -80 -6 -5 -44 -39 -84 -75 -41 -36 -78 -69 -84 -75 -6 -5 -56 -50 -111
-100 -228 -204 -386 -361 -542 -537 -108 -122 -197 -279 -232 -408 -55 -204
-48 -451 19 -671 160 -523 643 -882 1185 -880 119 1 164 4 205 16 8 3 33 7 55
10 61 9 181 52 272 97 113 56 238 153 373 288 162 161 279 305 438 535 42 61
79 112 82 115 4 3 10 12 13 20 4 8 38 62 77 120 59 89 149 234 284 457 36 60
285 494 327 571 18 31 35 62 39 67 14 19 533 981 586 1085 84 168 135 311 152
425 11 81 8 236 -8 290 -64 227 -248 403 -496 471 -90 24 -252 26 -348 3z"/>
<path d="M2408 2945 c-2 -2 -37 -5 -78 -9 -261 -20 -524 -107 -720 -237 -238
-158 -441 -424 -571 -749 -56 -138 -130 -200 -242 -200 -48 0 -230 93 -365
186 -110 77 -388 277 -415 299 -16 14 -17 8 -12 -122 3 -76 7 -154 9 -173 2
-19 7 -66 11 -103 3 -37 8 -78 11 -90 2 -12 10 -60 19 -107 8 -47 17 -94 19
-105 3 -11 12 -49 21 -85 61 -255 194 -551 337 -751 73 -102 217 -257 303
-326 211 -171 506 -300 780 -343 39 -6 81 -13 95 -16 42 -9 431 -12 495 -4 33
5 87 11 120 15 127 14 369 73 452 111 18 8 50 21 72 29 53 18 202 99 276 148
369 247 608 646 670 1119 24 183 27 419 5 525 -12 58 -15 62 -44 68 -39 8
-140 42 -183 61 -17 8 -34 14 -38 14 -16 0 -177 86 -255 137 -160 104 -294
226 -415 378 -60 75 -143 207 -182 286 l-24 50 -74 -2 c-41 -1 -76 -3 -77 -4z"/>
</g>
</svg>
